<svg viewBox="0 0 100 90" xmlns="http://www.w3.org/2000/svg">
  <!-- Body -->
  <ellipse cx="50" cy="62" rx="34" ry="24" fill="#f4d2b8"/>
  <!-- Head -->
  <circle cx="50" cy="34" r="22" fill="#f4d2b8"/>
  <!-- Ears -->
  <ellipse cx="32" cy="18" rx="8" ry="10" fill="#f4d2b8"/>
  <ellipse cx="68" cy="18" rx="8" ry="10" fill="#f4d2b8"/>
  <ellipse cx="32" cy="18" rx="4" ry="6" fill="#e8a888"/>
  <ellipse cx="68" cy="18" rx="4" ry="6" fill="#e8a888"/>
  <!-- Eyes -->
  <circle cx="42" cy="34" r="2.5" fill="#2a1a10"/>
  <circle cx="58" cy="34" r="2.5" fill="#2a1a10"/>
  <circle cx="43" cy="33" r="1" fill="#fff"/>
  <circle cx="59" cy="33" r="1" fill="#fff"/>
  <!-- Nose / mouth -->
  <path d="M48 40 Q50 42 52 40" fill="none" stroke="#8a4a26" stroke-width="1.5"/>
  <path d="M46 44 Q50 47 54 44" fill="none" stroke="#8a4a26" stroke-width="1.5"/>
  <!-- Cheek blush -->
  <ellipse cx="36" cy="40" rx="3" ry="2" fill="#f4a89a" opacity="0.6"/>
  <ellipse cx="64" cy="40" rx="3" ry="2" fill="#f4a89a" opacity="0.6"/>
  <!-- Bow tie -->
  <path d="M44 56 L50 60 L56 56 L54 64 L46 64 Z" fill="#d0344a"/>
  <circle cx="50" cy="60" r="2" fill="#fff"/>
</svg>
