<svg viewBox="0 0 200 200" xmlns="http://www.w3.org/2000/svg">
  <defs>
    <linearGradient id="drop" x1="0" y1="0" x2="0" y2="1">
      <stop offset="0" stop-color="#a8d4f0" stop-opacity="0"/>
      <stop offset="1" stop-color="#5a9fd0" stop-opacity="0.85"/>
    </linearGradient>
  </defs>
  <g stroke="url(#drop)" stroke-width="1.4" stroke-linecap="round">
    <line x1="20"  y1="10"  x2="14"  y2="36"/>
    <line x1="50"  y1="0"   x2="44"  y2="28"/>
    <line x1="78"  y1="20"  x2="72"  y2="50"/>
    <line x1="110" y1="6"   x2="104" y2="34"/>
    <line x1="140" y1="14"  x2="134" y2="42"/>
    <line x1="168" y1="0"   x2="162" y2="30"/>
    <line x1="32"  y1="60"  x2="26"  y2="88"/>
    <line x1="62"  y1="48"  x2="56"  y2="78"/>
    <line x1="92"  y1="70"  x2="86"  y2="100"/>
    <line x1="122" y1="56"  x2="116" y2="84"/>
    <line x1="152" y1="68"  x2="146" y2="98"/>
    <line x1="180" y1="50"  x2="174" y2="80"/>
    <line x1="14"  y1="110" x2="8"   y2="138"/>
    <line x1="46"  y1="120" x2="40"  y2="148"/>
    <line x1="76"  y1="108" x2="70"  y2="138"/>
    <line x1="106" y1="124" x2="100" y2="152"/>
    <line x1="138" y1="112" x2="132" y2="140"/>
    <line x1="166" y1="120" x2="160" y2="148"/>
  </g>
</svg>
