<svg viewBox="0 0 200 200" xmlns="http://www.w3.org/2000/svg">
  <g fill="white" opacity="0.95">
    <circle cx="18"  cy="14"  r="2.4"/>
    <circle cx="50"  cy="6"   r="2.0"/>
    <circle cx="82"  cy="22"  r="2.6"/>
    <circle cx="118" cy="10"  r="2.2"/>
    <circle cx="148" cy="20"  r="2.5"/>
    <circle cx="178" cy="6"   r="2.0"/>
    <circle cx="34"  cy="54"  r="2.3"/>
    <circle cx="66"  cy="44"  r="2.7"/>
    <circle cx="98"  cy="62"  r="2.0"/>
    <circle cx="130" cy="52"  r="2.4"/>
    <circle cx="160" cy="60"  r="2.1"/>
    <circle cx="20"  cy="92"  r="2.6"/>
    <circle cx="54"  cy="100" r="2.0"/>
    <circle cx="84"  cy="90"  r="2.3"/>
    <circle cx="116" cy="100" r="2.7"/>
    <circle cx="146" cy="92"  r="2.0"/>
    <circle cx="178" cy="98"  r="2.4"/>
    <circle cx="30"  cy="138" r="2.2"/>
    <circle cx="64"  cy="148" r="2.5"/>
    <circle cx="94"  cy="138" r="2.0"/>
    <circle cx="124" cy="148" r="2.6"/>
    <circle cx="154" cy="140" r="2.0"/>
    <circle cx="184" cy="148" r="2.3"/>
  </g>
</svg>
